<!-- Generator: Adobe Illustrator 23.0.1, SVG Export Plug-In  -->
<svg version="1.1" xmlns="http://www.w3.org/2000/svg" xmlns:xlink="http://www.w3.org/1999/xlink" x="0px" y="0px"
   width="316.794px" height="337.008px" viewBox="0 0 316.794 337.008" style="enable-background:new 0 0 316.794 337.008;"
   xml:space="preserve">
<style type="text/css">
  .st0{fill:#001933;}
  .st1{fill:#DDBEA1;}
</style>
<defs>
</defs>
<g>
  <g>
    <g>
      <path class="st0" d="M10.549,257.673H0v-47.639h9.868c11.342,0,17.014,3.631,17.014,10.889c0,1.769-0.363,3.381-1.089,4.832
        c-0.726,1.453-1.611,2.576-2.654,3.369c-1.044,0.794-2.075,1.463-3.096,2.008c-1.021,0.544-1.895,0.908-2.62,1.089l-1.089,0.272
        v0.34c4.446,0,7.826,0.976,10.14,2.927c2.314,1.951,3.471,4.606,3.471,7.962c0,4.311-1.599,7.714-4.798,10.209
        C21.948,256.425,17.082,257.673,10.549,257.673z M7.486,212.076v20.076h2.042c3.267,0,5.671-0.793,7.214-2.382
        c1.542-1.588,2.314-4.083,2.314-7.486c0-3.539-0.772-6.125-2.314-7.758c-1.543-1.634-3.947-2.45-7.214-2.45H7.486z
         M10.549,234.194H7.486v21.438h3.063c3.901,0,6.748-0.873,8.54-2.62c1.792-1.746,2.689-4.502,2.689-8.269
        c0-3.584-0.896-6.238-2.689-7.962C17.297,235.056,14.45,234.194,10.549,234.194z"/>
      <path class="st0" d="M47.756,257.673v-47.639h25.861v5.444l-18.375-3.743v20.076l16.333-1.361v4.424l-16.333-1.361v22.458
        l18.375-3.403v5.104H47.756z"/>
      <path class="st0" d="M107.186,257.673v-47.639h25.181v5.444l-17.695-3.743v20.757l16.333-1.361v4.423l-16.333-1.361v23.479
        H107.186z"/>
      <path class="st0" d="M162.65,209.354c5.036,0,9.13,1.997,12.284,5.989c3.153,3.993,4.73,9.824,4.73,17.49
        c0,7.758-1.838,13.952-5.512,18.58c-3.675,4.628-7.962,6.941-12.863,6.941c-5.036,0-9.131-1.996-12.284-5.989
        c-3.154-3.992-4.73-9.822-4.73-17.49c0-7.758,1.838-13.952,5.512-18.58C153.463,211.667,157.75,209.354,162.65,209.354z
         M158.124,255.291c1.111,0.68,2.393,1.02,3.845,1.02c1.451,0,2.733-0.34,3.845-1.02c1.111-0.681,2.144-1.815,3.097-3.403
        c0.953-1.588,1.678-3.902,2.178-6.942c0.499-3.039,0.749-6.737,0.749-11.093c0-4.356-0.25-8.053-0.749-11.093
        c-0.499-3.039-1.225-5.353-2.178-6.942c-0.953-1.588-1.985-2.722-3.097-3.403c-1.112-0.68-2.393-1.02-3.845-1.02
        c-1.453,0-2.734,0.34-3.845,1.02c-1.113,0.681-2.144,1.815-3.097,3.403c-0.953,1.589-1.679,3.903-2.178,6.942
        c-0.5,3.04-0.749,6.737-0.749,11.093c0,4.356,0.249,8.054,0.749,11.093c0.499,3.04,1.225,5.354,2.178,6.942
        C155.98,253.477,157.012,254.61,158.124,255.291z"/>
      <path class="st0" d="M211.649,209.354c5.036,0,9.13,1.997,12.284,5.989c3.153,3.993,4.73,9.824,4.73,17.49
        c0,7.758-1.838,13.952-5.512,18.58c-3.675,4.628-7.962,6.941-12.863,6.941c-5.036,0-9.131-1.996-12.284-5.989
        c-3.154-3.992-4.73-9.822-4.73-17.49c0-7.758,1.838-13.952,5.512-18.58C202.462,211.667,206.749,209.354,211.649,209.354z
         M207.124,255.291c1.111,0.68,2.393,1.02,3.845,1.02c1.451,0,2.733-0.34,3.845-1.02c1.111-0.681,2.144-1.815,3.097-3.403
        c0.953-1.588,1.678-3.902,2.178-6.942c0.499-3.039,0.749-6.737,0.749-11.093c0-4.356-0.25-8.053-0.749-11.093
        c-0.499-3.039-1.225-5.353-2.178-6.942c-0.953-1.588-1.985-2.722-3.097-3.403c-1.112-0.68-2.393-1.02-3.845-1.02
        c-1.453,0-2.734,0.34-3.845,1.02c-1.113,0.681-2.144,1.815-3.097,3.403c-0.953,1.589-1.679,3.903-2.178,6.942
        c-0.5,3.04-0.749,6.737-0.749,11.093c0,4.356,0.249,8.054,0.749,11.093c0.499,3.04,1.225,5.354,2.178,6.942
        C204.98,253.477,206.011,254.61,207.124,255.291z"/>
      <path class="st0" d="M253.504,257.673h-9.528v-47.639h11.501c6.125,0,10.899,1.929,14.326,5.785
        c3.425,3.857,5.138,9.528,5.138,17.014c0,7.85-1.963,13.952-5.887,18.307C265.129,255.495,259.946,257.673,253.504,257.673z
         M251.462,212.076v43.556h2.382c4.356,0,7.656-1.644,9.902-4.934c2.246-3.289,3.368-8.904,3.368-16.844
        c0-7.939-1.123-13.554-3.368-16.844c-2.246-3.289-5.547-4.934-9.902-4.934H251.462z"/>
      <path class="st0" d="M301.482,256.312c2.45,0,4.366-0.578,5.751-1.735c1.384-1.157,2.075-2.62,2.075-4.389
        c0-1.86-0.692-3.879-2.075-6.057c-1.384-2.178-3.052-4.276-5.002-6.295c-1.951-2.019-3.913-4.038-5.887-6.057
        c-1.974-2.019-3.653-4.128-5.036-6.329c-1.385-2.2-2.076-4.276-2.076-6.227c0-2.45,1.44-4.707,4.322-6.771
        c2.88-2.065,6.771-3.097,11.672-3.097c7.712,0,11.569,2.836,11.569,8.507v5.104h-6.805v-4.083c0-2.631-0.476-4.536-1.43-5.717
        c-0.953-1.179-2.405-1.769-4.356-1.769c-2.405,0-4.253,0.488-5.546,1.463c-1.294,0.976-1.94,2.189-1.94,3.641
        c0,1.861,0.691,3.879,2.076,6.056c1.383,2.178,3.051,4.277,5.002,6.296c1.95,2.019,3.913,4.038,5.887,6.057
        c1.973,2.019,3.652,4.129,5.036,6.329c1.384,2.202,2.075,4.277,2.075,6.227c0,2.995-1.407,5.558-4.219,7.691
        c-2.813,2.133-6.851,3.198-12.114,3.198c-4.447,0-7.77-0.907-9.97-2.722c-2.201-1.814-3.301-4.31-3.301-7.486v-5.104h6.806v4.423
        C293.996,253.363,296.49,256.312,301.482,256.312z"/>
      <path class="st0" d="M32.918,254.114l4.239-4.239l4.239,4.239l-4.239,4.239L32.918,254.114z"/>
      <path class="st0" d="M79.021,254.114l4.239-4.239l4.239,4.239l-4.239,4.239L79.021,254.114z"/>
    </g>
    <g>
      <path class="st0" d="M0.212,322.053h6.232c1.673,0,2.991,0.48,3.827,1.295c0.607,0.629,0.94,1.402,0.94,2.344v0.041
        c0,1.904-1.171,2.887-2.321,3.388c1.737,0.523,3.139,1.526,3.139,3.535v0.041c0,2.509-2.113,3.995-5.313,3.995H0.212V322.053z
         M6.172,328.578c1.986,0,3.367-0.899,3.367-2.613v-0.043c0-1.443-1.15-2.382-3.243-2.382H1.842v5.039H6.172z M6.759,335.206
        c2.215,0,3.596-0.983,3.596-2.613v-0.041c0-1.59-1.338-2.511-3.89-2.511H1.842v5.165H6.759z"/>
      <path class="st0" d="M18.814,322.053h1.651v14.638h-1.651V322.053z"/>
      <path class="st0" d="M27.455,329.413v-0.041c0-4.015,2.948-7.57,7.34-7.57c2.468,0,3.995,0.711,5.458,1.945l-1.067,1.255
        c-1.128-0.983-2.382-1.673-4.452-1.673c-3.243,0-5.564,2.74-5.564,6.003v0.041c0,3.492,2.237,6.085,5.793,6.085
        c1.673,0,3.22-0.648,4.223-1.463v-3.639h-4.452v-1.485h6.042v5.836c-1.359,1.212-3.408,2.237-5.877,2.237
        C30.299,336.943,27.455,333.596,27.455,329.413z"/>
      <path class="st0" d="M47.853,322.053h5.48c3.304,0,5.478,1.757,5.478,4.642v0.041c0,3.159-2.636,4.789-5.75,4.789h-3.555v5.165
        h-1.653V322.053z M53.123,330.02c2.425,0,4.015-1.295,4.015-3.22v-0.041c0-2.092-1.567-3.179-3.931-3.179h-3.7v6.44H53.123z"/>
      <path class="st0" d="M65.178,322.053h1.653v6.504h8.447v-6.504h1.653v14.638h-1.653v-6.588h-8.447v6.588h-1.653V322.053z"/>
      <path class="st0" d="M89.845,321.949h1.547l6.671,14.742h-1.778l-1.714-3.868h-7.967l-1.737,3.868h-1.694L89.845,321.949z
         M93.924,331.338l-3.326-7.466l-3.345,7.466H93.924z"/>
      <path class="st0" d="M104.306,322.053h1.549l9.221,11.731v-11.731h1.61v14.638h-1.318l-9.452-12.004v12.004h-1.61V322.053z"/>
      <path class="st0" d="M128.051,323.58h-4.916v-1.526h11.502v1.526h-4.914v13.112h-1.671V323.58z"/>
      <path class="st0" d="M163.59,335.711l-0.879,1.185l-3.371-2.577h-0.02c-0.872,0.971-1.682,1.661-2.432,2.072
        c-0.75,0.411-1.567,0.617-2.452,0.617c-1.261,0-2.303-0.347-3.132-1.042c-0.825-0.693-1.24-1.622-1.24-2.787
        c0-0.797,0.239-1.553,0.715-2.272c0.476-0.717,1.058-1.342,1.747-1.874v-0.02c-0.517-0.423-0.907-0.872-1.169-1.349
        c-0.264-0.478-0.394-1.003-0.394-1.575c0-0.987,0.421-1.81,1.261-2.468c0.842-0.658,1.79-0.987,2.846-0.987
        c1.199,0,2.172,0.311,2.916,0.932c0.748,0.619,1.12,1.453,1.12,2.495c0,0.729-0.208,1.43-0.627,2.103
        c-0.417,0.672-1.075,1.394-1.972,2.164v0.02c0.435,0.353,0.932,0.748,1.485,1.179c0.554,0.433,0.93,0.727,1.128,0.885h0.02
        c0.695-0.934,1.33-1.872,1.908-2.814c0.578-0.944,0.891-1.453,0.94-1.528l1.255,0.817c-0.108,0.163-0.521,0.754-1.234,1.774
        c-0.715,1.018-1.328,1.853-1.837,2.507v0.02L163.59,335.711z M158.267,333.573v-0.02c-0.586-0.458-1.298-1.011-2.135-1.667
        c-0.838-0.654-1.716-1.349-2.636-2.084h-0.02c-0.729,0.693-1.199,1.289-1.41,1.786c-0.21,0.497-0.317,1.024-0.317,1.582
        c0,0.762,0.266,1.367,0.797,1.816c0.531,0.45,1.175,0.674,1.931,0.674c0.783,0,1.477-0.188,2.078-0.564
        C157.16,334.718,157.73,334.211,158.267,333.573z M157.501,326.23c0-0.695-0.219-1.25-0.658-1.671
        c-0.437-0.417-1.034-0.627-1.788-0.627c-0.695,0-1.277,0.2-1.749,0.603c-0.472,0.403-0.709,0.919-0.709,1.553
        c0,0.525,0.247,1.048,0.74,1.573c0.494,0.525,1.234,1.165,2.221,1.921h0.02c0.725-0.607,1.228-1.175,1.506-1.706
        C157.362,327.343,157.501,326.796,157.501,326.23z"/>
      <path class="st0" d="M178.978,322.053h10.582v1.506h-8.929v4.998h7.987v1.506h-7.987v5.123h9.033v1.506h-10.686V322.053z"/>
      <path class="st0" d="M196.344,322.053h1.653v13.112h8.239v1.526h-9.892V322.053z"/>
      <path class="st0" d="M212.643,322.053h10.582v1.506h-8.929v4.998h7.987v1.506h-7.987v5.123h9.033v1.506h-10.686V322.053z"/>
      <path class="st0" d="M230.009,322.053h5.48c3.304,0,5.478,1.757,5.478,4.642v0.041c0,3.159-2.636,4.789-5.75,4.789h-3.555v5.165
        h-1.653V322.053z M235.279,330.02c2.425,0,4.015-1.295,4.015-3.22v-0.041c0-2.092-1.567-3.179-3.931-3.179h-3.7v6.44H235.279z"/>
      <path class="st0" d="M247.334,322.053h1.653v6.504h8.447v-6.504h1.653v14.638h-1.653v-6.588h-8.447v6.588h-1.653V322.053z"/>
      <path class="st0" d="M272.001,321.949h1.547l6.671,14.742h-1.778l-1.714-3.868h-7.967l-1.737,3.868h-1.694L272.001,321.949z
         M276.079,331.338l-3.326-7.466l-3.345,7.466H276.079z"/>
      <path class="st0" d="M286.462,322.053h1.549l9.221,11.731v-11.731h1.61v14.638h-1.318l-9.452-12.004v12.004h-1.61V322.053z"/>
      <path class="st0" d="M310.209,323.58h-4.916v-1.526h11.502v1.526h-4.914v13.112h-1.671V323.58z"/>
    </g>
    <g>
      <path class="st0" d="M107.187,292.168H0.001v-2.12h107.186V292.168z M316.794,290.048H209.981v2.12h106.813V290.048z"/>
      <g>
        <path class="st0" d="M121.747,281.955l-3.921,1.217l-0.563-1.9l5.076-1.751h1.722v20.932h-2.314V281.955z"/>
        <path class="st0" d="M135.334,298.257l1.366-1.811c1.693,1.484,3.266,2.225,5.107,2.225c3.741,0,6.266-3.801,6.177-9.114
          c-1.128,1.811-2.999,3.324-5.879,3.324c-4.277,0-7.245-2.701-7.245-6.442v-0.06c0-3.95,3.057-7.067,7.481-7.067
          c2.376,0,4.128,0.803,5.465,2.138c1.573,1.573,2.581,3.89,2.581,8.046v0.06c0,6.591-3.502,11.253-8.64,11.253
          C139.046,300.809,137.086,299.71,135.334,298.257z M147.537,286.172v-0.06c0-2.643-2.167-4.722-5.285-4.722
          c-3.117,0-4.987,2.287-4.987,4.871v0.058c0,2.643,2.078,4.544,5.107,4.544C145.548,290.863,147.537,288.546,147.537,286.172z"/>
        <path class="st0" d="M160.471,298.257l1.366-1.811c1.693,1.484,3.266,2.225,5.107,2.225c3.741,0,6.266-3.801,6.177-9.114
          c-1.128,1.811-2.999,3.324-5.879,3.324c-4.277,0-7.245-2.701-7.245-6.442v-0.06c0-3.95,3.057-7.067,7.481-7.067
          c2.376,0,4.128,0.803,5.465,2.138c1.573,1.573,2.581,3.89,2.581,8.046v0.06c0,6.591-3.502,11.253-8.64,11.253
          C164.182,300.809,162.222,299.71,160.471,298.257z M172.674,286.172v-0.06c0-2.643-2.167-4.722-5.285-4.722
          c-3.117,0-4.989,2.287-4.989,4.871v0.058c0,2.643,2.08,4.544,5.109,4.544C170.684,290.863,172.674,288.546,172.674,286.172z"/>
        <path class="st0" d="M184.686,297.514l1.544-1.693c1.811,1.753,3.801,2.85,5.908,2.85c2.97,0,5.02-1.958,5.02-4.602v-0.06
          c0-2.581-2.138-4.364-5.167-4.364c-1.753,0-3.148,0.534-4.366,1.188l-1.573-1.039l0.594-10.127h11.965v2.167h-9.915
          l-0.447,6.651c1.219-0.534,2.376-0.919,4.099-0.919c4.039,0,7.185,2.405,7.185,6.353v0.06c0,4.068-3.088,6.829-7.423,6.829
          C189.141,300.809,186.557,299.385,184.686,297.514z"/>
      </g>
    </g>
  </g>
  <path class="st1" d="M158.397,0L84.996,42.379v27.824l6.359,5.047V46.051l67.042-38.708l67.043,38.708v54.65
    c-6.126-1.759-12.479-2.775-18.73-3.041c-6.722-0.286-16.707-0.71-27.663-1.582c-0.531-2.987-1.743-5.765-3.848-8.344
    c-4.907-6.013-11.17-8.597-17.514-11.214c-3.495-1.442-7.018-2.895-10.145-4.935c-4.299-2.805-7.045-5.512-8.546-8.071
    c-1.44-2.453-1.673-4.767-1.03-6.875c1.522-4.983,6.056-9.405,12.327-12.28c6.189-2.837,14.798-4.158,23.101-2.992
    c0.102-4.026,0.009-7.603,0.004-11.617l-0.004-3.006l-2.999-0.198c-8.863-0.585-17.707-0.536-25.862,1.609
    c-8.412,2.213-15.983,6.607-21.926,14.704c-4.77,6.498-7.442,13.853-8.544,21.638c-1.114,7.866-0.602,16.148,0.954,24.397
    c-9.852-3.834-18.147-8.625-18.147-8.625c5.278,5.635,12.467,9.927,19.069,13.024c8.497,37.433,24.738,46.216,43.253,50.775
    c-1.605,5.57-2.72,11.088-3.398,16.6l-64.437-37.204V93.734l-6.359-5.092v38.493l73.401,42.379l73.402-42.379V42.379L158.397,0z
     M123.314,96.405c5.812,2.197,10.019,3.229,10.019,3.229l-1.432-6.204c-3.117-0.308-6.472-1.083-9.828-2.092
    c-0.139-0.634-0.92-4.261-1.461-7.923c-0.856-6.163-1.012-12.254-0.193-18.039c0.958-6.767,3.262-13.135,7.363-18.722
    c4.958-6.755,11.31-10.43,18.382-12.291c6.442-1.695,13.559-1.921,20.817-1.58l-0.002,0.996l-0.002,0.784
    c-7.129-0.068-13.781,1.411-19.352,3.964c-7.92,3.63-13.727,9.477-15.795,16.251c-1.156,3.785-0.801,7.828,1.633,11.977
    c1.988,3.388,5.4,6.827,10.582,10.208c3.616,2.359,7.423,3.929,11.2,5.487c5.585,2.304,11.1,4.578,14.976,9.329
    c0.917,1.124,1.57,2.361,1.999,3.704c0.166,0.463,0.305,0.952,0.414,1.454c0.505,2.325,0.154,5.022,0.154,5.022
    c-0.518,6.029-3.329,13.4-6.554,21.856c-1.687,4.422-3.477,9.116-5.125,14.078C145.241,133.932,131.245,126.397,123.314,96.405z
     M169.499,146.29c3.91,0.784,7.878,1.584,11.845,2.633L162.3,159.918c0.744-5.015,1.856-9.839,3.189-14.441
    C166.819,145.752,168.156,146.02,169.499,146.29z M188.032,145.061c-5.776-2.229-11.628-3.948-17.276-5.08
    c-1.116-0.224-2.228-0.447-3.333-0.675c1.555-4.644,3.235-9.05,4.82-13.204c3.388-8.881,6.373-16.71,7.005-23.586
    c10.8,0.855,20.561,1.27,27.21,1.553c6.316,0.268,12.807,1.31,18.981,3.263v16.132L188.032,145.061z"/>
</g>
</svg>
